<svg xmlns="http://www.w3.org/2000/svg" viewBox="0 0 24 24" fill="currentColor">
  <path d="M12 .5C5.65.5.5 5.65.5 12c0 5.08 3.29 9.38 7.86 10.9.58.1.8-.25.8-.57v-2.1c-3.2.7-3.88-1.54-3.88-1.54-.53-1.35-1.29-1.7-1.29-1.7-1.05-.72.07-.7.07-.7 1.16.08 1.78 1.2 1.78 1.2 1.03 1.77 2.7 1.26 3.35.96.1-.75.4-1.26.73-1.55-2.56-.3-5.25-1.28-5.25-5.7 0-1.26.45-2.3 1.2-3.1-.12-.3-.52-1.5.1-3.12 0 0 .98-.32 3.2 1.18a11.2 11.2 0 0 1 5.83 0c2.22-1.5 3.2-1.18 3.2-1.18.63 1.62.23 2.82.1 3.12.75.8 1.2 1.83 1.2 3.1 0 4.43-2.7 5.4-5.27 5.68.41.35.78 1.04.78 2.1v3.1c0 .32.2.67.81.56A11.52 11.52 0 0 0 23.5 12C23.5 5.65 18.35.5 12 .5z"></path>
</svg>
